<?xml version="1.0" standalone="no"?>
<!DOCTYPE svg PUBLIC "-//W3C//DTD SVG 20010904//EN"
 "http://www.w3.org/TR/2001/REC-SVG-20010904/DTD/svg10.dtd">
<svg version="1.0" xmlns="http://www.w3.org/2000/svg"
 width="128.000000pt" height="128.000000pt" viewBox="0 0 128.000000 128.000000"
 preserveAspectRatio="xMidYMid meet">

<g transform="translate(0.000000,128.000000) scale(0.100000,-0.100000)"
fill="#000000" stroke="none">
<path d="M368 925 c-153 -168 -278 -309 -278 -315 0 -5 15 -10 34 -10 70 0 66
15 66 -275 0 -210 3 -265 14 -274 9 -8 138 -10 457 -9 l444 3 3 270 c2 200 6
271 15 277 6 4 29 8 50 8 20 0 37 5 37 11 0 11 -548 619 -559 619 -3 0 -131
-137 -283 -305z m484 53 c263 -288 308 -339 308 -349 0 -4 -17 -9 -37 -11
l-38 -3 -3 -273 -2 -272 -430 0 -430 0 0 275 0 275 -40 0 c-22 0 -40 4 -40 8
0 11 500 562 510 562 5 0 96 -96 202 -212z"/>
<path d="M580 635 l0 -94 -92 -3 -93 -3 0 -65 0 -65 93 -3 92 -3 0 -94 0 -95
70 0 70 0 0 95 0 95 94 0 c104 0 106 1 106 70 0 69 -2 70 -106 70 l-94 0 0 95
0 95 -70 0 -70 0 0 -95z m110 -25 l5 -95 95 -5 95 -5 0 -35 0 -35 -95 -5 -95
-5 -5 -95 -5 -95 -35 0 -35 0 -5 95 -5 95 -90 3 c-49 2 -92 7 -95 13 -4 5 -5
23 -2 39 l4 29 92 3 91 3 3 85 c3 108 5 112 44 108 l33 -3 5 -95z"/>
</g>
</svg>
