<?xml version="1.0" standalone="no"?>
<!DOCTYPE svg PUBLIC "-//W3C//DTD SVG 20010904//EN"
 "http://www.w3.org/TR/2001/REC-SVG-20010904/DTD/svg10.dtd">
<svg version="1.0" xmlns="http://www.w3.org/2000/svg"
 width="128.000000pt" height="128.000000pt" viewBox="0 0 128.000000 128.000000"
 preserveAspectRatio="xMidYMid meet">

<g transform="translate(0.000000,128.000000) scale(0.100000,-0.100000)"
fill="#000000" stroke="none">
<path d="M338 1052 c-164 -119 -303 -223 -310 -230 -11 -11 -10 -16 4 -26 13
-10 18 -27 18 -65 0 -58 13 -91 35 -91 13 0 15 -47 17 -312 l3 -313 540 0 540
0 3 310 2 310 23 10 c19 9 22 19 25 74 2 47 8 68 20 77 16 12 16 14 -3 32 -31
30 -603 442 -612 441 -4 0 -142 -98 -305 -217z m639 -62 c111 -80 202 -148
202 -152 1 -5 -241 -8 -536 -8 -475 0 -536 2 -522 15 8 8 129 98 269 199 l254
184 66 -46 c36 -26 157 -112 267 -192z m221 -252 l-3 -53 -550 0 -550 0 -3 53
-3 52 556 0 556 0 -3 -52z m-48 -393 l0 -295 -505 0 -505 0 0 295 0 295 505 0
505 0 0 -295z"/>
<path d="M606 1120 c-85 -26 -122 -128 -73 -201 28 -42 60 -59 112 -59 52 0
84 17 112 59 68 101 -34 236 -151 201z m112 -65 c30 -36 29 -85 -4 -124 -21
-26 -33 -31 -69 -31 -36 0 -48 5 -69 31 -42 50 -33 113 22 144 37 21 92 12
120 -20z"/>
<path d="M177 584 c-4 -4 -7 -56 -7 -115 0 -128 -7 -122 135 -117 l90 3 0 115
0 115 -106 3 c-58 1 -108 -1 -112 -4z m183 -114 l0 -80 -75 0 -75 0 0 80 0 80
75 0 75 0 0 -80z"/>
<path d="M436 575 c-11 -31 -7 -190 7 -208 10 -15 27 -17 112 -15 l100 3 0
115 0 115 -106 3 c-91 2 -108 0 -113 -13z m184 -105 l0 -81 -72 3 -73 3 -3 64
c-2 35 -1 70 2 77 4 10 26 14 76 14 l70 0 0 -80z"/>
<path d="M706 582 c-2 -4 -1 -13 3 -20 6 -9 58 -12 207 -10 169 3 199 5 199
18 0 13 -30 15 -202 18 -111 1 -204 -1 -207 -6z"/>
<path d="M706 482 c-2 -4 -1 -13 3 -20 6 -9 58 -12 207 -10 169 3 199 5 199
18 0 13 -30 15 -202 18 -111 1 -204 -1 -207 -6z"/>
<path d="M706 381 c-16 -26 27 -31 215 -29 165 3 194 5 194 18 0 13 -30 15
-202 18 -113 1 -204 -2 -207 -7z"/>
<path d="M177 314 c-12 -13 -8 -209 5 -222 14 -14 185 -17 206 -4 9 6 12 37
10 118 l-3 109 -106 3 c-58 1 -108 -1 -112 -4z m181 -111 l-3 -78 -70 0 -70 0
-3 78 -3 77 76 0 76 0 -3 -77z"/>
<path d="M436 304 c-11 -30 -6 -190 7 -207 10 -15 27 -17 112 -15 l100 3 3
118 3 117 -110 0 c-90 0 -110 -3 -115 -16z m184 -104 l0 -81 -72 3 -73 3 -3
64 c-2 35 -1 70 2 77 4 10 26 14 76 14 l70 0 0 -80z"/>
<path d="M707 314 c-12 -13 -8 -209 5 -222 14 -14 185 -17 206 -4 9 6 12 37
10 118 l-3 109 -106 3 c-58 1 -108 -1 -112 -4z m181 -111 l-3 -78 -70 0 -70 0
-3 78 -3 77 76 0 76 0 -3 -77z"/>
</g>
</svg>
