<?xml version="1.0" standalone="no"?>
<!DOCTYPE svg PUBLIC "-//W3C//DTD SVG 20010904//EN"
 "http://www.w3.org/TR/2001/REC-SVG-20010904/DTD/svg10.dtd">
<svg version="1.0" xmlns="http://www.w3.org/2000/svg"
 width="128.000000pt" height="128.000000pt" viewBox="0 0 128.000000 128.000000"
 preserveAspectRatio="xMidYMid meet">

<g transform="translate(0.000000,128.000000) scale(0.100000,-0.100000)"
fill="#000000" stroke="none">
<path d="M982 1157 c-6 -7 -14 -99 -19 -211 -5 -117 -12 -201 -18 -203 -5 -1
-53 31 -105 72 -52 41 -102 74 -110 72 -12 -2 -16 -22 -18 -95 -1 -50 -7 -92
-12 -92 -5 0 -70 43 -144 95 -74 52 -142 95 -149 95 -20 0 -27 -31 -27 -117 0
-40 -3 -73 -6 -73 -3 0 -67 43 -142 95 -75 53 -143 94 -152 93 -13 -3 -15 -49
-18 -377 -2 -267 1 -378 9 -387 9 -12 110 -14 569 -14 307 0 565 3 574 6 14 5
16 60 16 518 0 385 -3 515 -12 524 -17 17 -222 16 -236 -1z m198 -518 l0 -480
-32 3 -33 3 -5 90 -5 90 -134 3 c-101 2 -136 -1 -143 -10 -4 -7 -8 -50 -8 -95
0 -66 -3 -83 -15 -83 -11 0 -15 19 -17 93 l-3 92 -140 0 -140 0 -3 -92 c-2
-73 -6 -93 -17 -93 -11 0 -15 20 -17 93 l-3 92 -140 0 -140 0 -3 -92 -3 -93
-34 0 -35 0 0 331 0 331 27 -18 c16 -10 82 -55 147 -101 66 -46 124 -82 130
-80 7 2 12 40 14 95 2 64 6 92 15 92 7 0 46 -24 87 -53 202 -142 199 -140 215
-127 11 9 15 34 15 96 0 46 3 84 6 84 3 0 50 -34 104 -76 56 -43 105 -74 113
-71 17 6 27 98 27 238 0 53 3 124 6 158 l7 61 78 0 79 0 0 -481z m-760 -409
l0 -70 -95 0 -95 0 0 70 0 70 95 0 95 0 0 -70z m320 0 l0 -70 -95 0 -95 0 0
70 0 70 95 0 95 0 0 -70z m325 0 l0 -65 -97 -3 -98 -3 0 71 0 71 98 -3 97 -3
0 -65z"/>
<path d="M217 554 c-4 -4 -7 -38 -7 -75 0 -61 2 -67 23 -73 35 -9 153 -7 182
4 25 9 26 13 23 77 l-3 68 -106 3 c-58 1 -108 -1 -112 -4z m173 -74 l0 -30
-65 0 c-68 0 -85 11 -71 45 4 11 22 15 71 15 l65 0 0 -30z"/>
<path d="M537 554 c-4 -4 -7 -38 -7 -75 0 -78 1 -79 115 -79 116 0 116 0 113
84 l-3 71 -106 3 c-58 1 -108 -1 -112 -4z m173 -74 l0 -31 -62 3 c-60 3 -63 4
-66 31 l-3 27 65 0 66 0 0 -30z"/>
<path d="M862 548 c-7 -7 -12 -38 -12 -70 0 -55 2 -59 28 -69 41 -16 190 -8
202 11 13 20 13 97 0 121 -10 17 -22 19 -108 19 -63 0 -102 -4 -110 -12z m176
-65 c-3 -27 -5 -28 -68 -28 -63 0 -65 1 -68 28 l-3 27 71 0 71 0 -3 -27z"/>
</g>
</svg>
