<?xml version="1.0" standalone="no"?>
<!DOCTYPE svg PUBLIC "-//W3C//DTD SVG 20010904//EN"
 "http://www.w3.org/TR/2001/REC-SVG-20010904/DTD/svg10.dtd">
<svg version="1.0" xmlns="http://www.w3.org/2000/svg"
 width="128.000000pt" height="128.000000pt" viewBox="0 0 128.000000 128.000000"
 preserveAspectRatio="xMidYMid meet">

<g transform="translate(0.000000,128.000000) scale(0.100000,-0.100000)"
fill="#000000" stroke="none">
<path d="M606 1227 c-16 -16 -25 -41 -30 -80 -6 -46 -13 -61 -33 -74 -14 -9
-36 -34 -49 -55 l-24 -38 -199 0 c-168 0 -202 -2 -215 -16 -38 -37 1 -84 68
-84 l44 0 -1 -46 c-2 -37 2 -49 22 -65 35 -28 85 -25 110 7 12 15 21 40 21 57
l0 29 78 -7 c73 -7 79 -9 112 -46 42 -45 75 -59 135 -59 60 0 93 14 135 59 33
37 39 39 113 46 l77 7 0 -29 c0 -17 9 -42 21 -57 25 -32 75 -35 110 -7 20 16
24 28 22 65 l-1 46 44 0 c67 0 106 47 68 84 -13 14 -47 16 -214 16 l-198 0
-22 35 c-12 19 -34 44 -50 55 -23 16 -29 30 -35 76 -5 40 -14 64 -30 80 -30
30 -50 30 -79 1z m57 -24 c3 -5 8 -27 12 -50 l7 -43 -37 0 -37 0 7 43 c9 51
12 57 30 57 8 0 16 -3 18 -7z m31 -147 c96 -40 121 -153 49 -228 -53 -56 -137
-56 -195 -1 -72 69 -48 187 47 229 39 17 58 17 99 0z m-232 -131 c3 -14 2 -27
-1 -29 -7 -5 -349 23 -369 29 -7 3 -10 9 -7 15 4 6 77 10 189 10 l184 0 4 -25z
m743 15 c3 -6 0 -12 -7 -15 -26 -9 -363 -33 -369 -27 -4 4 -3 17 2 30 8 22 11
22 188 22 110 0 182 -4 186 -10z m-927 -112 c4 -37 -31 -57 -59 -32 -33 30
-15 67 31 62 19 -2 26 -10 28 -30z m806 10 c8 -14 6 -22 -10 -39 -18 -17 -25
-19 -43 -10 -20 11 -29 50 -14 65 12 12 56 2 67 -16z"/>
<path d="M597 1018 c-27 -7 -37 -15 -35 -27 5 -23 161 -23 166 1 2 11 -10 19
-42 27 -25 6 -46 11 -48 10 -2 -1 -20 -6 -41 -11z"/>
<path d="M618 936 c-16 -8 -24 -22 -26 -47 -3 -41 14 -61 54 -61 67 0 79 98
15 115 -11 2 -30 -1 -43 -7z m42 -51 c0 -8 -7 -15 -15 -15 -8 0 -15 7 -15 15
0 8 7 15 15 15 8 0 15 -7 15 -15z"/>
<path d="M275 547 c-3 -7 -4 -125 -3 -262 l3 -250 367 -3 c358 -2 367 -2 378
18 10 19 13 208 3 243 -4 15 -18 17 -112 17 -77 0 -112 4 -119 13 -6 7 -13 62
-14 123 l-3 109 -248 3 c-194 2 -249 0 -252 -11z m65 -47 c0 -21 -24 -28 -35
-10 -8 14 3 30 21 30 8 0 14 -9 14 -20z m80 0 c0 -13 -7 -20 -20 -20 -19 0
-27 20 -13 33 13 14 33 6 33 -13z m80 0 c0 -11 -6 -20 -14 -20 -18 0 -29 16
-21 30 11 18 35 11 35 -10z m80 0 c0 -11 -6 -20 -14 -20 -18 0 -29 16 -21 30
11 18 35 11 35 -10z m88 -3 c2 -11 -3 -17 -17 -17 -23 0 -35 15 -26 31 10 15
39 6 43 -14z m77 3 c0 -8 -8 -16 -17 -18 -13 -2 -18 3 -18 18 0 15 5 20 18 18
9 -2 17 -10 17 -18z m-405 -74 c0 -23 20 -30 46 -15 19 10 27 10 36 1 18 -18
35 -14 41 8 3 11 12 20 21 20 13 0 16 -12 16 -60 l0 -60 -100 0 -100 0 0 53
c0 30 3 57 7 60 12 12 33 7 33 -7z m245 -6 c8 -24 28 -26 45 -5 12 14 15 14
30 0 23 -21 37 -19 45 6 4 12 14 19 23 17 13 -2 18 -17 20 -61 l3 -58 -103 3
-103 3 -3 44 c-2 24 -1 50 2 57 8 21 34 17 41 -6z m-247 -163 c2 -12 -3 -17
-17 -17 -12 0 -21 6 -21 13 0 31 32 34 38 4z m80 -5 c2 -14 -2 -22 -12 -22
-19 0 -29 17 -22 36 8 22 30 12 34 -14z m80 5 c2 -10 -3 -17 -12 -17 -18 0
-29 16 -21 31 9 14 29 6 33 -14z m80 0 c2 -10 -3 -17 -12 -17 -18 0 -29 16
-21 31 9 14 29 6 33 -14z m90 0 c4 -22 -27 -35 -38 -16 -10 15 7 42 24 36 6
-2 12 -11 14 -20z m80 0 c2 -12 -3 -17 -17 -17 -12 0 -21 6 -21 13 0 31 32 34
38 4z m80 0 c2 -12 -3 -17 -17 -17 -12 0 -21 6 -21 13 0 31 32 34 38 4z m77
-3 c0 -10 -8 -20 -17 -22 -18 -3 -26 27 -11 42 12 11 28 0 28 -20z m83 3 c2
-12 -3 -17 -17 -17 -12 0 -21 6 -21 13 0 31 32 34 38 4z m-642 -84 c11 -15 16
-16 34 -5 14 9 26 10 40 2 26 -14 40 -13 40 5 0 8 9 15 20 15 18 0 20 -7 20
-60 l0 -61 -97 3 -98 3 -3 58 c-3 48 0 57 14 57 9 0 23 -8 30 -17z m243 0 c9
-16 13 -16 32 -5 18 12 26 12 46 1 22 -12 26 -11 34 4 6 9 19 17 30 17 18 0
20 -6 17 -57 l-3 -58 -100 0 -100 0 -3 58 c-3 51 -1 57 17 57 11 0 24 -8 30
-17z m241 2 c0 -17 31 -20 47 -4 8 8 17 7 32 -3 19 -11 24 -11 35 5 7 9 21 17
30 17 14 0 17 -9 14 -57 l-3 -58 -97 -3 -98 -3 0 61 c0 53 2 60 20 60 11 0 20
-7 20 -15z"/>
</g>
</svg>
