<?xml version="1.0" standalone="no"?>
<!DOCTYPE svg PUBLIC "-//W3C//DTD SVG 20010904//EN"
 "http://www.w3.org/TR/2001/REC-SVG-20010904/DTD/svg10.dtd">
<svg version="1.0" xmlns="http://www.w3.org/2000/svg"
 width="128.000000pt" height="128.000000pt" viewBox="0 0 128.000000 128.000000"
 preserveAspectRatio="xMidYMid meet">

<g transform="translate(0.000000,128.000000) scale(0.100000,-0.100000)"
fill="#000000" stroke="none">
<path d="M599 1249 c-53 -8 -116 -38 -143 -68 -26 -28 -12 -40 17 -14 48 45
88 58 177 58 89 0 129 -13 177 -58 31 -28 42 -13 14 17 -47 50 -153 79 -242
65z"/>
<path d="M563 1100 c-18 -11 -33 -24 -33 -30 0 -14 5 -13 42 10 20 12 51 20
78 20 27 0 58 -8 78 -20 37 -23 42 -24 42 -10 0 23 -65 50 -120 50 -37 0 -66
-6 -87 -20z"/>
<path d="M623 1008 c-36 -17 -27 -24 27 -24 28 0 50 3 50 6 0 6 -47 31 -53 29
-1 0 -12 -5 -24 -11z"/>
<path d="M37 823 c-4 -3 -7 -163 -7 -355 l0 -348 54 0 c48 0 54 -2 60 -23 8
-34 51 -74 86 -81 35 -7 76 7 108 36 l22 21 23 -21 c35 -33 75 -44 113 -32 35
12 84 62 84 86 0 12 30 14 173 14 l173 0 15 -32 c42 -93 165 -97 206 -7 17 37
20 38 71 39 l52 0 0 125 0 126 -96 124 -97 125 -113 0 -113 0 -3 103 -3 102
-401 3 c-220 1 -403 -1 -407 -5z m781 -230 l2 -213 -380 0 -380 0 0 215 0 215
378 -2 377 -3 3 -212z m326 -100 c42 -54 76 -101 76 -105 0 -5 -83 -8 -185 -8
l-185 0 0 105 0 105 109 0 110 0 75 -97z m-329 -243 l0 -105 -112 -3 -112 -3
-17 37 c-40 83 -129 97 -201 31 -13 -11 -23 -15 -23 -9 0 19 -61 52 -95 52
-43 0 -94 -35 -111 -75 -12 -30 -19 -35 -49 -35 l-35 0 0 103 c0 57 3 107 7
110 4 4 173 6 377 5 l371 -3 0 -105z m425 71 c0 -33 -4 -40 -22 -43 -32 -5
-35 -28 -4 -28 25 0 26 -3 26 -55 l0 -55 -35 0 c-30 0 -37 5 -49 35 -40 95
-168 98 -216 5 -18 -35 -25 -40 -55 -40 l-35 0 0 103 c0 57 3 107 7 110 3 4
91 7 195 7 l188 0 0 -39z m-925 -126 c35 -34 35 -96 0 -130 -32 -33 -84 -33
-122 -1 -39 34 -39 98 0 132 38 32 90 32 122 -1z m208 5 c66 -52 27 -160 -58
-160 -37 0 -62 16 -81 51 -30 60 13 129 81 129 18 0 44 -9 58 -20z m584 -4
c22 -19 28 -32 28 -66 0 -100 -132 -126 -171 -34 -12 29 -12 39 0 68 8 19 22
39 33 45 31 18 80 13 110 -13z"/>
<path d="M140 595 l0 -135 300 0 301 0 -3 133 -3 132 -297 3 -298 2 0 -135z
m180 0 l0 -105 -80 0 -80 0 0 105 0 105 80 0 80 0 0 -105z m210 0 l0 -105 -90
0 -90 0 0 105 0 105 90 0 90 0 0 -105z m190 0 l0 -105 -80 0 -80 0 0 105 0
105 80 0 80 0 0 -105z"/>
</g>
</svg>
